<?xml version="1.0" encoding="UTF-8"?>
<svg width="22px" height="22px" viewBox="0 0 22 22" version="1.1" xmlns="http://www.w3.org/2000/svg" xmlns:xlink="http://www.w3.org/1999/xlink">
    <!-- Generator: Sketch 53.1 (72631) - https://sketchapp.com -->
    <title>分组</title>
    <desc>Created with Sketch.</desc>
    <g id="新版薪友" stroke="none" stroke-width="1" fill="none" fill-rule="evenodd">
        <g id="查看图片windows缩小" transform="translate(-1016.000000, -80.000000)" fill-rule="nonzero">
            <g id="分组-14" transform="translate(90.000000, 60.000000)">
                <g id="全屏幕" transform="translate(926.000000, 20.000000)">
                    <g id="分组">
                        <rect id="矩形" fill="#000000" opacity="0" x="0" y="0" width="22" height="22"></rect>
                        <path d="M13.0810811,14.7018485 L15.1143277,14.7018485 C15.8849464,14.7018485 16.5096563,14.0771386 16.5096563,13.3065199 L16.5096563,6.88567233 C16.5096563,6.11505359 15.8849464,5.49034367 15.1143277,5.49034367 L8.69348014,5.49034367 C7.9228614,5.49034367 7.29815148,6.11505359 7.29815148,6.88567233 L7.29815148,8.91891892 L10.8337004,8.91891892 C12.0748945,8.91891892 13.0810811,9.92510554 13.0810811,11.1662996 L13.0810811,14.7018485 Z M5.80780781,8.96188771 L5.80780781,6.88567233 C5.80780781,5.29195951 7.09976732,4 8.69348014,4 L15.1143277,4 C16.7080405,4 18,5.29195951 18,6.88567233 L18,13.3065199 C18,14.9002327 16.7080405,16.1921922 15.1143277,16.1921922 L13.0381123,16.1921922 C12.8337269,17.2229348 11.9244603,18 10.8337004,18 L6.24738071,18 C5.00618662,18 4,16.9938134 4,15.7526193 L4,11.1662996 C4,10.0755397 4.77706524,9.16627309 5.80780781,8.96188771 Z M6.24738071,10.3558225 C5.79976654,10.3558225 5.43690357,10.7186855 5.43690357,11.1662996 L5.43690357,15.7526193 C5.43690357,16.2002335 5.79976654,16.5630964 6.24738071,16.5630964 L10.8337004,16.5630964 C11.2813145,16.5630964 11.6441775,16.2002335 11.6441775,15.7526193 L11.6441775,11.1662996 C11.6441775,10.7186855 11.2813145,10.3558225 10.8337004,10.3558225 L6.24738071,10.3558225 Z" id="合并形状" fill="#9D9FA3"></path>
                    </g>
                </g>
            </g>
        </g>
    </g>
</svg>