<?xml version="1.0" encoding="UTF-8"?>
<svg width="22px" height="22px" viewBox="0 0 22 22" version="1.1" xmlns="http://www.w3.org/2000/svg" xmlns:xlink="http://www.w3.org/1999/xlink">
    <!-- Generator: Sketch 53.1 (72631) - https://sketchapp.com -->
    <title>分组</title>
    <desc>Created with Sketch.</desc>
    <g id="新版薪友" stroke="none" stroke-width="1" fill="none" fill-rule="evenodd">
        <g id="查看图片windows" transform="translate(-1016.000000, -80.000000)" fill-rule="nonzero">
            <g id="分组-14" transform="translate(90.000000, 60.000000)">
                <g id="全屏幕" transform="translate(926.000000, 20.000000)">
                    <g id="分组">
                        <rect id="矩形" fill="#000000" opacity="0" x="0" y="0" width="22" height="22"></rect>
                        <path d="M5,7.72733333 C5,6.22106872 6.22106872,5 7.72733333,5 L14.2726667,5 C15.7789313,5 17,6.22106872 17,7.72733333 L17,14.2726667 C17,15.7789313 15.7789313,17 14.2726667,17 L7.72733333,17 C6.22106872,17 5,15.7789313 5,14.2726667 L5,7.72733333 Z M7.72733333,6.09066666 C6.82342729,6.09066666 6.09066666,6.82342729 6.09066666,7.72733333 L6.09066666,14.2726667 C6.09066666,15.1765727 6.82342729,15.9093333 7.72733333,15.9093333 L14.2726667,15.9093333 C15.1765727,15.9093333 15.9093333,15.1765727 15.9093333,14.2726667 L15.9093333,7.72733333 C15.9093333,6.82342729 15.1765727,6.09066666 14.2726667,6.09066666 L7.72733333,6.09066666 Z" id="形状" stroke="#979797" stroke-width="0.5" fill="#9D9FA3"></path>
                    </g>
                </g>
            </g>
        </g>
    </g>
</svg>