<?xml version="1.0" encoding="UTF-8"?>
<svg width="22px" height="22px" viewBox="0 0 22 22" version="1.1" xmlns="http://www.w3.org/2000/svg" xmlns:xlink="http://www.w3.org/1999/xlink">
    <!-- Generator: Sketch 53.1 (72631) - https://sketchapp.com -->
    <title>放大</title>
    <desc>Created with Sketch.</desc>
    <g id="新版薪友" stroke="none" stroke-width="1" fill="none" fill-rule="evenodd">
        <g id="查看图片" transform="translate(-1048.000000, -86.000000)" fill-rule="nonzero">
            <g id="下载" transform="translate(1048.000000, 86.000000)">
                <g id="分组">
                    <rect id="矩形" fill="#000000" opacity="0" x="0" y="0" width="22" height="22"></rect>
                    <path d="M17.4,19 L4.59999999,19 C3.7163444,19 3,18.2836556 3,17.4 L3,15.5714286 C3,15.192719 3.30700474,14.8857143 3.68571429,14.8857143 C4.06442383,14.8857143 4.37142858,15.192719 4.37142858,15.5714286 L4.37142858,17.4 C4.37142859,17.5262365 4.47376349,17.6285714 4.59999999,17.6285714 L17.4,17.6285714 C17.5262365,17.6285714 17.6285714,17.5262365 17.6285714,17.4 L17.6285714,15.5714286 C17.6285714,15.192719 17.9355762,14.8857143 18.3142857,14.8857143 C18.6929953,14.8857143 19,15.192719 19,15.5714286 L19,17.4 C19,18.2836556 18.2836556,19 17.4,19 L17.4,19 Z M11,13.5234286 C10.816542,13.5234449 10.6407279,13.4499465 10.5118654,13.3193659 C10.383003,13.1887853 10.3118396,13.0120131 10.3142857,12.8285714 L10.3142857,3.68571429 C10.3142857,3.30700474 10.6212905,3 11,3 C11.3787095,3 11.6857143,3.30700474 11.6857143,3.68571429 L11.6857143,12.8285714 C11.6881604,13.0120131 11.616997,13.1887853 11.4881346,13.3193659 C11.3592721,13.4499465 11.183458,13.5234449 11,13.5234286 L11,13.5234286 Z M11,14.6982857 C10.8182983,14.6976278 10.6441837,14.6253538 10.5154286,14.4971429 L5.94399999,9.92571429 C5.81445848,9.79774451 5.74154923,9.62323422 5.74154923,9.44114286 C5.74154923,9.25905149 5.81445848,9.0845412 5.94399999,8.95657143 C6.21274503,8.69167658 6.64439781,8.69167658 6.91314285,8.95657143 L11.4845714,13.528 C11.6141129,13.6559698 11.6870222,13.8304801 11.6870222,14.0125714 C11.6870222,14.1946628 11.6141129,14.3691731 11.4845714,14.4971429 C11.3558163,14.6253538 11.1817017,14.6976278 11,14.6982857 Z M11,14.6982857 C10.8182983,14.6976278 10.6441837,14.6253538 10.5154286,14.4971429 C10.3858871,14.3691731 10.3129778,14.1946628 10.3129778,14.0125714 C10.3129778,13.8304801 10.3858871,13.6559698 10.5154286,13.528 L15.0868571,8.95657143 C15.3556022,8.69167658 15.787255,8.69167658 16.056,8.95657143 C16.1855415,9.0845412 16.2584508,9.25905149 16.2584508,9.44114286 C16.2584508,9.62323422 16.1855415,9.79774451 16.056,9.92571429 L11.4845714,14.4971429 C11.3558163,14.6253538 11.1817017,14.6976278 11,14.6982857 L11,14.6982857 Z" id="形状" stroke="#9D9FA3" stroke-width="0.5" fill="#9D9FA3"></path>
                </g>
            </g>
        </g>
    </g>
</svg>