<?xml version="1.0" encoding="UTF-8"?>
<svg width="22px" height="22px" viewBox="0 0 22 22" version="1.1" xmlns="http://www.w3.org/2000/svg" xmlns:xlink="http://www.w3.org/1999/xlink">
    <!-- Generator: Sketch 53.1 (72631) - https://sketchapp.com -->
    <title>放大</title>
    <desc>Created with Sketch.</desc>
    <g id="新版薪友" stroke="none" stroke-width="1" fill="none" fill-rule="evenodd">
        <g id="查看图片" transform="translate(-1008.000000, -86.000000)" fill-rule="nonzero">
            <g id="旋转" transform="translate(1008.000000, 86.000000)">
                <g id="分组">
                    <rect id="矩形" fill="#000000" opacity="0" x="0" y="0" width="22" height="22"></rect>
                    <path d="M13.8690029,19.5 L5.03793804,19.5 C3.91459546,19.5 3,18.6020497 3,17.5004943 L3,10.8337351 C3,9.73043948 3.91459546,8.83422935 5.03793804,8.83422935 L13.8690029,8.83422935 C14.9923455,8.83422935 15.9069409,9.73217969 15.9069409,10.8337351 L15.9069409,17.5004943 C15.9069409,18.6020497 14.9923455,19.5 13.8690029,19.5 Z M5.03793804,10.1672332 C4.66290083,10.1672332 4.35862536,10.4665499 4.35862536,10.8337351 L4.35862536,17.5004943 C4.35862536,17.8676794 4.66290083,18.1669962 5.03793804,18.1669962 L13.8690029,18.1669962 C14.2440401,18.1669962 14.5483156,17.8676794 14.5483156,17.5004943 L14.5483156,10.8337351 C14.5483156,10.4665499 14.2440401,10.1672332 13.8690029,10.1672332 L5.03793804,10.1672332 Z M18.3202827,9.22331619 C18.0584642,9.22331619 17.8090291,9.0736578 17.6975794,8.823067 C16.2505018,5.57756818 12.7849458,5.09378873 10.8478432,5.09378873 C10.472806,5.09378873 10.1685305,4.79447195 10.1685305,4.42728683 C10.1685305,4.06010171 10.472806,3.76078493 10.8478432,3.76078493 C14.707896,3.76078493 17.6586604,5.41224787 18.942986,8.29056157 C19.0933547,8.62816305 18.9359098,9.02145138 18.5927154,9.16936956 C18.5042632,9.20591405 18.4105039,9.22331619 18.3202827,9.22331619 Z M10.678015,6.35370356 C10.5046488,6.35370356 10.3295135,6.28931565 10.1968352,6.15879961 L8.91427872,4.89888478 C8.6489222,4.63785271 8.6489222,4.21672096 8.91427872,3.95568888 L10.1968352,2.69577406 C10.4621917,2.43474198 10.8920693,2.43474198 11.1574258,2.69577406 C11.4227823,2.95680613 11.4227823,3.37793788 11.1574258,3.63896996 L10.3542801,4.42728683 L11.1574258,5.2156037 C11.4227823,5.47663578 11.4227823,5.89776753 11.1574258,6.15879961 C11.0265166,6.28757543 10.8513813,6.35370356 10.678015,6.35370356 Z" id="形状" stroke="#9D9FA3" stroke-width="0.5" fill="#9D9FA3"></path>
                </g>
            </g>
        </g>
    </g>
</svg>