<?xml version="1.0" encoding="UTF-8"?>
<svg width="22px" height="22px" viewBox="0 0 22 22" version="1.1" xmlns="http://www.w3.org/2000/svg" xmlns:xlink="http://www.w3.org/1999/xlink">
    <!-- Generator: Sketch 53.1 (72631) - https://sketchapp.com -->
    <title>放大</title>
    <desc>Created with Sketch.</desc>
    <g id="新版薪友" stroke="none" stroke-width="1" fill="none" fill-rule="evenodd">
        <g id="查看图片" transform="translate(-928.000000, -86.000000)" fill-rule="nonzero">
            <g id="放大" transform="translate(928.000000, 86.000000)">
                <g id="分组">
                    <rect id="矩形" fill="#000000" opacity="0" x="0" y="0" width="22" height="22"></rect>
                    <path d="M18.7554004,17.6234695 L15.9819754,14.8471856 C17.0177602,13.5568211 17.5815754,11.9509057 17.5798949,10.2958305 C17.5803264,7.34526619 15.8043718,4.6850135 13.0802481,3.55568201 C10.3561244,2.42635052 7.22037524,3.05037341 5.13535807,5.13673743 C3.05034089,7.22310145 2.42672083,10.3608762 3.55532329,13.0867596 C4.68392575,15.8126429 7.34246113,17.5897447 10.2911207,17.589313 C11.9508837,17.5913304 13.5610315,17.0231192 14.8523381,15.9796874 L17.6246964,18.7538365 C17.7744632,18.9085539 17.9797018,18.9971264 18.194943,18.9999313 C18.4101843,19.0027363 18.6176584,18.9195422 18.771401,18.76878 C19.0823379,18.4478079 19.0751824,17.9356188 18.7554004,17.6234695 L18.7554004,17.6234695 Z M4.6023993,10.2968978 C4.60239927,8.26320059 5.68666343,6.38398681 7.44675996,5.36713817 C9.20685649,4.35028953 11.3753848,4.35028953 13.1354814,5.36713817 C14.8955779,6.38398681 15.9798421,8.26320059 15.979842,10.2968978 C15.979842,13.4410161 13.4326759,15.9898275 10.2905873,15.9898275 C7.14849873,15.9898275 4.60133264,13.4410161 4.6013326,10.2968978 L4.6023993,10.2968978 Z M10.9930105,9.59455458 L9.5892308,9.59562198 L7.65636691,9.59562198 C7.26305399,9.59087175 6.94006061,9.90548053 6.93420971,10.2990326 C6.93420971,10.6875629 7.25848709,11.0003085 7.65636691,11.0003085 L9.5892308,11.0003085 L10.9930105,11.0003085 L12.9258744,11.0003085 C13.3187775,11.005063 13.6415996,10.6910982 13.6480316,10.2979652 C13.6427631,9.9045836 13.3200755,9.58980768 12.9269411,9.59455458 L10.9930105,9.59455458 Z" id="形状" stroke="#9C9FA2" stroke-width="0.2" fill="#9D9FA3"></path>
                </g>
            </g>
        </g>
    </g>
</svg>