<?xml version="1.0" encoding="UTF-8"?>
<svg width="22px" height="22px" viewBox="0 0 22 22" version="1.1" xmlns="http://www.w3.org/2000/svg" xmlns:xlink="http://www.w3.org/1999/xlink">
    <!-- Generator: Sketch 53.1 (72631) - https://sketchapp.com -->
    <title>分组</title>
    <desc>Created with Sketch.</desc>
    <g id="新版薪友" stroke="none" stroke-width="1" fill="none" fill-rule="evenodd">
        <g id="查看图片windows" transform="translate(-1048.000000, -80.000000)" fill-rule="nonzero">
            <g id="分组-14" transform="translate(90.000000, 60.000000)">
                <g id="关闭" transform="translate(958.000000, 20.000000)">
                    <g id="分组">
                        <rect id="矩形" fill="#000000" opacity="0" x="0" y="0" width="22" height="22"></rect>
                        <path d="M16.7428571,5.25714286 C17.0857143,5.6 17.0857143,6.11428571 16.7428571,6.37142857 L12.1142857,11 L16.7428571,15.6285714 C17.0857143,15.9714286 17.0857143,16.4857143 16.7428571,16.7428571 C16.4,17.0857143 15.8857143,17.0857143 15.6285714,16.7428571 L11,12.1142857 L6.37142857,16.7428571 C6.02857143,17.0857143 5.51428571,17.0857143 5.25714286,16.7428571 C4.91428571,16.4 4.91428571,15.8857143 5.25714286,15.6285714 L9.88571429,11 L5.25714286,6.37142857 C4.91428571,6.02857143 4.91428571,5.51428571 5.25714286,5.25714286 C5.6,5 6.11428571,4.91428571 6.37142857,5.25714286 L11,9.88571429 L15.6285714,5.25714286 C15.8857143,4.91428571 16.4857143,4.91428571 16.7428571,5.25714286 Z" id="路径" fill="#9D9FA3"></path>
                    </g>
                </g>
            </g>
        </g>
    </g>
</svg>