<?xml version="1.0" encoding="UTF-8"?>
<svg width="22px" height="22px" viewBox="0 0 22 22" version="1.1" xmlns="http://www.w3.org/2000/svg" xmlns:xlink="http://www.w3.org/1999/xlink">
    <!-- Generator: Sketch 53.1 (72631) - https://sketchapp.com -->
    <title>放大</title>
    <desc>Created with Sketch.</desc>
    <g id="新版薪友" stroke="none" stroke-width="1" fill="none" fill-rule="evenodd">
        <g id="查看图片" transform="translate(-968.000000, -86.000000)" fill-rule="nonzero">
            <g id="1:1" transform="translate(968.000000, 86.000000)">
                <g id="分组">
                    <rect id="矩形" fill="#000000" opacity="0" x="0" y="0" width="22" height="22"></rect>
                    <path d="M3,17 L3,5 C3,3.8954305 3.8954305,3 5,3 L17,3 C18.1045695,3 19,3.8954305 19,5 L19,17 C19,18.1045695 18.1045695,19 17,19 L5,19 C3.8954305,19 3,18.1045695 3,17 Z M6.19402987,17.8059701 L15.8059701,17.8059701 C16.9105396,17.8059701 17.8059701,16.9105396 17.8059701,15.8059701 L17.8059701,6.19402987 C17.8059701,5.08946037 16.9105396,4.19402987 15.8059701,4.19402987 L6.19402987,4.19402987 C5.08946037,4.19402987 4.19402987,5.08946037 4.19402987,6.19402987 L4.19402987,15.8059701 C4.19402987,16.9105396 5.08946037,17.8059701 6.19402987,17.8059701 Z M7.08119404,9.49552238 C7.35919151,9.38716325 7.62560309,9.25115734 7.87641792,9.08955223 C8.14160927,8.91843623 8.3805241,8.70968742 8.58567164,8.46985075 L9.06328359,8.46985075 L9.06328359,13.4358209 L8.39223882,13.4358209 L8.39223882,9.39522389 C8.32569993,9.4549868 8.25508147,9.51004526 8.18089553,9.56 C8.0931959,9.6198082 8.00231608,9.67481441 7.90865673,9.72477612 C7.81074628,9.77731343 7.70805972,9.82746268 7.60059703,9.87522388 C7.49313434,9.92298508 7.38925374,9.96278607 7.28895523,9.99462686 L7.08119404,9.49552238 Z M11.8453731,10.1904478 C11.8458179,10.3134035 11.7997523,10.4319797 11.7164179,10.5223881 C11.5214158,10.7135283 11.2093305,10.7135283 11.0143284,10.5223881 C10.8422968,10.3308701 10.8422968,10.0404731 11.0143284,9.84895522 C11.2093305,9.65781493 11.5214158,9.65781493 11.7164179,9.84895522 C11.8020366,9.94177124 11.8482707,10.064206 11.8453731,10.1904478 L11.8453731,10.1904478 Z M11.8453731,13.0489552 C11.8476501,13.174377 11.8014587,13.2958433 11.7164179,13.3880597 C11.5214158,13.5792 11.2093305,13.5792 11.0143284,13.3880597 C10.8422968,13.1965418 10.8422968,12.9061448 11.0143284,12.7146269 C11.2093305,12.5234866 11.5214158,12.5234866 11.7164179,12.7146269 C11.8003166,12.8056394 11.8464237,12.9251765 11.8453731,13.0489552 L11.8453731,13.0489552 Z M12.9414925,9.49552238 C13.21949,9.38716325 13.4859016,9.25115734 13.7367164,9.08955223 C14.0019078,8.91843623 14.2408226,8.70968742 14.4459701,8.46985075 L14.9235821,8.46985075 L14.9235821,13.4358209 L14.2573134,13.4358209 L14.2573134,9.39522389 C14.1907745,9.4549868 14.1201561,9.51004526 14.0459701,9.56 C13.9582705,9.6198082 13.8673907,9.67481441 13.7737313,9.72477612 C13.6758209,9.77731343 13.5731343,9.82746268 13.4656716,9.87522388 C13.3582089,9.92298508 13.2543284,9.96278607 13.1540299,9.99462686 L12.9414925,9.49552238 Z" id="形状" stroke="#9D9FA3" stroke-width="0.7" fill="#9D9FA3"></path>
                </g>
            </g>
        </g>
    </g>
</svg>